<?xml version="1.0" encoding="utf-8" ?>
<svg baseProfile="full" height="200mm" version="1.1" viewBox="0,0,200,200" width="200mm" xmlns="http://www.w3.org/2000/svg" xmlns:ev="http://www.w3.org/2001/xml-events" xmlns:xlink="http://www.w3.org/1999/xlink"><defs /><rect fill="#1a1a1a" height="200" width="200" x="0" y="0" /><text alignment-baseline="middle" fill="#e1ed5e" style="dominant-baseline: central; font-size:9.0px; font-family:Arial;" text-anchor="middle" x="100.0" y="100.0">2022</text><line stroke="#e1ed5e" stroke-width="0.3" x1="100.0" x2="100.0" y1="15.0" y2="10.0" /><path d="M 100.0 14.0 a86.0,86.0 0 0,1 42.46469731375804,11.215312516191453" fill="none" id="id25" stroke="none" /><text fill="#e1ed5e" style="font-size:6.75px; font-family:Arial;" text-anchor="middle"><textPath startOffset="22.20632615414155" xlink:href="#id25">January</textPath></text><line stroke="#e1ed5e" stroke-width="0.3" x1="143.23703022742887" x2="145.7803849466894" y1="26.81831364943548" y2="22.513508569990506" /><path d="M 143.74570117128098 25.957352633546492 a86.0,86.0 0 0,1 28.547481713284135,27.462654790039103" fill="none" id="id26" stroke="none" /><text fill="#e1ed5e" style="font-size:6.75px; font-family:Arial;" text-anchor="middle"><textPath startOffset="19.985693538727396" xlink:href="#id26">February</textPath></text><line stroke="#e1ed5e" stroke-width="0.3" x1="172.23445277983987" x2="176.4835382374775" y1="55.19839476539836" y2="52.563006222186495" /><path d="M 173.08426987136738 54.67131705675599 a86.0,86.0 0 0,1 12.851231095245387,41.99856678651699" fill="none" id="id27" stroke="none" /><text fill="#e1ed5e" style="font-size:6.75px; font-family:Arial;" text-anchor="middle"><textPath startOffset="22.20632615414155" xlink:href="#id27">March</textPath></text><path d="M 118.03404312379186 89.2402003453031 l 36.28341686300007 -21.648073787662394 a63.25074482148585,63.25074482148585 0 0,0 0.5498005499861089,0.9397873603930395 l -36.65067708745651 21.02030701491546" fill="red" stroke="none" /><path d="M 118.3937258080291 89.86733742301442 l 19.51421270044485 -10.74991194349664 a43.2792527727286,43.2792527727286 0 0,0 0.3538427225216333,0.6556168254364944 l -19.69636352218495 10.412414134727687" fill="red" stroke="none" /><path d="M 118.89224826269711 90.83032412892265 l 29.574837970255828 -14.354653525401044 a53.87441434917426,53.87441434917426 0 0,0 0.39775173840064687,0.8377666004117598 l -29.81754790249823 13.843444509348744" fill="red" stroke="none" /><path d="M 119.34039704204932 91.81776055985345 l 58.02119112614798 -24.54671832043964 a84.0,84.0 0 0,0 0.5519132524552104,1.3365017181867875 l -58.435126065489385 23.54434203179955" fill="red" stroke="none" /><line stroke="#e1ed5e" stroke-width="0.3" x1="184.98032266829074" x2="189.97916517819016" y1="98.17113171792111" y2="98.06355123074" /><path d="M 185.9800911702706 98.14961562048488 a86.0,86.0 0 0,1 -9.607161424134198,41.387399972396054" fill="none" id="id28" stroke="none" /><text fill="#e1ed5e" style="font-size:6.75px; font-family:Arial;" text-anchor="middle"><textPath startOffset="21.466115282336823" xlink:href="#id28">April</textPath></text><path d="M 120.64145759157962 103.86396538481128 l 37.87068272476429 7.08917994276496 a59.52849701585389,59.52849701585389 0 0,0 -0.19720959653575873,1.0055674840309985 l -37.74304319525287 -7.740011153863904" fill="red" stroke="none" /><path d="M 120.23288151984713 105.62410040840565 l 37.072101175324015 10.304870275451059 a59.47766932842132,59.47766932842132 0 0,0 -0.282681397134774,0.9840510277414475 l -36.88922714130314 -10.941478778697087" fill="red" stroke="none" /><path d="M 119.41010516605496 108.01547362559984 l 35.50105253839135 14.660288950940567 a59.40896774789311,59.40896774789311 0 0,0 -0.3984616578889766,0.9418456555786147 l -35.24343989931007 -15.269209132185345" fill="red" stroke="none" /><line stroke="#e1ed5e" stroke-width="0.3" x1="174.80103733775053" x2="179.2010983576182" y1="140.37084112569926" y2="142.7455964860345" /><path d="M 175.68104954172406 140.8457921977663 a86.0,86.0 0 0,1 -30.038265399797805,32.042727171017184" fill="none" id="id29" stroke="none" /><text fill="#e1ed5e" style="font-size:6.75px; font-family:Arial;" text-anchor="middle"><textPath startOffset="22.206326154141568" xlink:href="#id29">May</textPath></text><path d="M 116.27256486870786 113.27417163493432 l 24.97940413842866 20.37668311954441 a53.236312538273864,53.236312538273864 0 0,0 -0.5853560721907117,0.7050990973949481 l -24.624952066344402 -20.80364347405313" fill="red" stroke="none" /><path d="M 115.56566222782051 114.09645910891815 l 23.308237123076562 21.108232126428586 a52.445689391214756,52.445689391214756 0 0,0 -0.6117504762627958,0.663934319796828 l -22.941440238818046 -21.50631770102675" fill="red" stroke="none" /><path d="M 114.55890576462653 115.13401014063108 l 23.564431080505404 24.49527077763314 a54.98971465925328,54.98971465925328 0 0,0 -0.6878013103838255,0.6503590693611223 l -23.139293935730773 -24.897264483740187" fill="red" stroke="none" /><path d="M 113.20401910651253 116.32954008644616 l 19.790121575405784 24.474637682237223 a52.474700977866775,52.474700977866775 0 0,0 -0.707265282556318,0.5618943153640138 l -19.365898800132115 -24.81166591160636" fill="red" stroke="none" /><line stroke="#e1ed5e" stroke-width="0.3" x1="143.8653032363475" x2="146.44561519142675" y1="172.8068346515853" y2="177.08958963109032" /><path d="M 144.38136562736335 173.6633856474863 a86.0,86.0 0 0,1 -40.68145358897372,12.25698825130547" fill="none" id="id30" stroke="none" /><text fill="#e1ed5e" style="font-size:6.75px; font-family:Arial;" text-anchor="middle"><textPath startOffset="21.466115282336833" xlink:href="#id30">June</textPath></text><path d="M 108.2653958097858 119.30500536409082 l 9.21769049126128 21.529224791346017 a44.41950764019168,44.41950764019168 0 0,0 -0.7054844549083098,0.29489255936815695 l -8.84573457685551 -21.684702393734145" fill="red" stroke="none" /><path d="M 106.2309692047433 120.05430185196036 l 9.74249498987365 31.356106714410664 a53.834762629159094,53.834762629159094 0 0,0 -0.8873123138581424,0.26733992143155877 l -9.201307701575262 -31.519162004947948" fill="red" stroke="none" /><path d="M 103.06178313531738 120.77559828337769 l 5.593400739692368 37.95378107135292 a59.36372804416925,59.36372804416925 0 0,0 -1.012212082532264,0.14028337134147015 l -4.939260065973273 -38.04443900818699" fill="red" stroke="none" /><path d="M 102.34483914955558 120.86867818915974 l 3.778398355094377 33.62711653712339 a54.838724277535306,54.838724277535306 0 0,0 -0.9389627473302223,0.0973273279478226 l -3.199003011158552 -33.68717323352697" fill="red" stroke="none" /><line stroke="#e1ed5e" stroke-width="0.3" x1="102.19456741930631" x2="102.32365962044197" y1="184.97166512339345" y2="189.96999836594603" /><path d="M 102.22038585953345 185.97133177190398 a86.0,86.0 0 0,1 -42.740103519485714,-10.115201625700543" fill="none" id="id31" stroke="none" /><text fill="#e1ed5e" style="font-size:6.75px; font-family:Arial;" text-anchor="middle"><textPath startOffset="22.20632615414155" xlink:href="#id31">July</textPath></text><path d="M 94.11515582081647 120.15858648285463 l -5.942232807572448 20.355171743786855 a42.20479067235631,42.20479067235631 0 0,0 -0.6956254404863524,-0.2095862389160378 l 6.291733222499046 -20.249870135765093" fill="red" stroke="none" /><path d="M 93.76903079525671 120.05430185196036 l -6.05914391630874 19.501284161318665 a41.42090372483646,41.42090372483646 0 0,0 -0.6790634771192549,-0.21741468125576568 l 6.393928738518936 -19.394096633403194" fill="red" stroke="none" /><path d="M 92.06813273071674 119.44442032107085 l -7.292342785772045 17.876670579321647 a40.30682817831002,40.30682817831002 0 0,0 -0.6401655987903954,-0.26758927221335355 l 7.598979844059903 -17.74849626408832" fill="red" stroke="none" /><line stroke="#e1ed5e" stroke-width="0.3" x1="58.666819895761336" x2="56.23545636021788" y1="174.27360380694188" y2="178.64263932499728" /><path d="M 58.180547188652646 175.14741091055294 a86.0,86.0 0 0,1 -31.652253787137756,-30.449443065178592" fill="none" id="id32" stroke="none" /><text fill="#e1ed5e" style="font-size:6.75px; font-family:Arial;" text-anchor="middle"><textPath startOffset="22.20632615414155" xlink:href="#id32">August</textPath></text><line stroke="#e1ed5e" stroke-width="0.3" x1="26.63291911575756" x2="22.317208475507996" y1="142.92168965132927" y2="145.44649492493687" /><path d="M 25.769776987707644 143.4266507060508 a86.0,86.0 0 0,1 -11.730757126820373,-40.83630448921669" fill="none" id="id33" stroke="none" /><text fill="#e1ed5e" style="font-size:6.75px; font-family:Arial;" text-anchor="middle"><textPath startOffset="21.46611528233685" xlink:href="#id33">September</textPath></text><path d="M 80.58989483394504 108.01547362559985 l -18.41637662830562 7.605109806486415 a40.92487448603673,40.92487448603673 0 0,0 -0.263278264519433,-0.6534350612439029 l 18.54455750708244 -7.286975377399707" fill="red" stroke="none" /><path d="M 80.32549172779594 107.34259656027581 l -17.9712740217323 6.706943471729427 a40.1820171175287,40.1820171175287 0 0,0 -0.23626210751845617,-0.6500918493532518 l 18.084060390255978 -6.396603825370058" fill="red" stroke="none" /><path d="M 80.20201598880116 107.00284435728193 l -18.211181183177597 6.441568359481249 a40.31685592989687,40.31685592989687 0 0,0 -0.22579199642365444,-0.6562572324978523 l 18.31936401054448 -6.1271384238941" fill="red" stroke="none" /><path d="M 79.58551787078972 104.9243191809786 l -20.68235808758097 4.988935403500374 a42.27555904137951,42.27555904137951 0 0,0 -0.16455144147675063,-0.7088833031705042 l 20.765170094988274 -4.632183442981296" fill="red" stroke="none" /><path d="M 79.35854240842038 103.8639653848113 l -25.06906449056274 4.692788626547938 a46.50451449303537,46.50451449303537 0 0,0 -0.14051794723199307,-0.7880992721108 l 25.146128880133922 -4.260570603703924" fill="red" stroke="none" /><line stroke="#e1ed5e" stroke-width="0.3" x1="15.007084014347285" x2="10.007500721073583" y1="101.09737516637583" y2="101.16192664675087" /><path d="M 14.007167355692545 101.11028546245083 a86.0,86.0 0 0,1 10.666146001902534,-42.60595125391555" fill="none" id="id34" stroke="none" /><text fill="#e1ed5e" style="font-size:6.75px; font-family:Arial;" text-anchor="middle"><textPath startOffset="22.20632615414155" xlink:href="#id34">October</textPath></text><path d="M 79.54389044137918 95.25157060432595 l -24.83094755429903 -5.763950420356646 a46.49115691553992,46.49115691553992 0 0,0 0.1876631040173988,-0.7779847208267187 l 24.728051650020817 6.190520372842761" fill="red" stroke="none" /><path d="M 79.91906864156998 93.8553929516997 l -20.593229145189056 -6.30136614154957 a42.535744748583255,42.535744748583255 0 0,0 0.22026328501161188,-0.6982948058572662 l 20.48171037640924 6.6549111138332515" fill="red" stroke="none" /><path d="M 80.38941819471856 92.48833698450439 l -20.27325408697059 -7.765493876771641 a42.70962289919029,42.70962289919029 0 0,0 0.2688803633044564,-0.6842711964266316 l 20.13658017378444 8.113314078094037" fill="red" stroke="none" /><line stroke="#e1ed5e" stroke-width="0.3" x1="26.266209847984243" x2="21.928928074336255" y1="57.711370442889674" y2="55.22380399835377" /><path d="M 25.398753493254645 57.213857153982495 a86.0,86.0 0 0,1 29.58750427330803,-30.492523968695096" fill="none" id="id35" stroke="none" /><text fill="#e1ed5e" style="font-size:6.75px; font-family:Arial;" text-anchor="middle"><textPath startOffset="21.46611528233685" xlink:href="#id35">November</textPath></text><path d="M 83.17141714833178 87.43820079747576 l -30.722097078067716 -22.932698372571902 a59.337395627788524,59.337395627788524 0 0,0 0.6180245746780056,-0.8132478962499118 l 30.3227965631656 23.458131044702842" fill="red" stroke="none" /><line stroke="#e1ed5e" stroke-width="0.3" x1="56.762969772571076" x2="54.21961505331055" y1="26.818313649435495" y2="22.513508569990535" /><path d="M 56.25429882871897 25.957352633546506 a86.0,86.0 0 0,1 42.265352541879196,-11.944610805530505" fill="none" id="id36" stroke="none" /><text fill="#e1ed5e" style="font-size:6.75px; font-family:Arial;" text-anchor="middle"><textPath startOffset="22.20632615414155" xlink:href="#id36">December</textPath></text></svg>