<?xml version="1.0" encoding="utf-8" ?>
<svg baseProfile="full" height="200mm" version="1.1" viewBox="0,0,200,200" width="200mm" xmlns="http://www.w3.org/2000/svg" xmlns:ev="http://www.w3.org/2001/xml-events" xmlns:xlink="http://www.w3.org/1999/xlink"><defs /><rect fill="#1a1a1a" height="200" width="200" x="0" y="0" /><text alignment-baseline="middle" fill="#e1ed5e" style="dominant-baseline: central; font-size:9.0px; font-family:Arial;" text-anchor="middle" x="100.0" y="100.0">2020</text><line stroke="#e1ed5e" stroke-width="0.3" x1="100.0" x2="100.0" y1="15.0" y2="10.0" /><path d="M 100.0 14.0 a86.0,86.0 0 0,1 42.35913384403234,11.155469271406648" fill="none" id="id49" stroke="none" /><text fill="#e1ed5e" style="font-size:6.75px; font-family:Arial;" text-anchor="middle"><textPath startOffset="22.145653131862478" xlink:href="#id49">January</textPath></text><line stroke="#e1ed5e" stroke-width="0.3" x1="143.13028292997686" x2="145.6673583964461" y1="26.7553504044142" y2="22.446841604673864" /><path d="M 143.63769802327073 25.89364864446614 a86.0,86.0 0 0,1 29.32050498858742,28.57503671076993" fill="none" id="id50" stroke="none" /><text fill="#e1ed5e" style="font-size:6.75px; font-family:Arial;" text-anchor="middle"><textPath startOffset="20.669276256404974" xlink:href="#id50">February</textPath></text><line stroke="#e1ed5e" stroke-width="0.3" x1="172.87174338648825" x2="177.1583165268699" y1="56.24261187166439" y2="53.66864786411523" /><path d="M 173.72905801456457 55.72781907015455 a86.0,86.0 0 0,1 12.242430191666344,42.057860355516425" fill="none" id="id51" stroke="none" /><text fill="#e1ed5e" style="font-size:6.75px; font-family:Arial;" text-anchor="middle"><textPath startOffset="22.145653131862474" xlink:href="#id51">March</textPath></text><line stroke="#e1ed5e" stroke-width="0.3" x1="184.99686870605535" x2="189.99668451229388" y1="99.2704041080226" y2="99.22748670261217" /><path d="M 185.99683186730306 99.26182062694052 a86.0,86.0 0 0,1 -10.086455211305974,41.156179273409016" fill="none" id="id52" stroke="none" /><text fill="#e1ed5e" style="font-size:6.75px; font-family:Arial;" text-anchor="middle"><textPath startOffset="21.40746469413373" xlink:href="#id52">April</textPath></text><path d="M 120.82617615685814 102.69636545807757 l 21.508003579194487 2.7846416685595625 a42.68751823480319,42.68751823480319 0 0,0 -0.10032681426366626,0.7259148502652518 l -21.457032248375608 -3.1534448270248996" fill="#ffc512" stroke="none" /><path d="M 119.31412917781788 108.2440532568976 l 14.568342268279084 6.218359027148977 a36.839967974596796,36.839967974596796 0 0,0 -0.2532591982434213,0.5795066081072606 l -14.459449188018697 -6.467527705032082" fill="#ff6c09" stroke="none" /><path d="M 119.0197475246899 108.90220220490707 l 21.87811468942531 10.240062365422343 a45.1559677846156,45.1559677846156 0 0,0 -0.3346288197228661,0.6992455324146637 l -21.699106611742533 -10.614120399902111" fill="#ffe815" stroke="none" /><path d="M 118.70294669586154 109.54985784667822 l 56.10884008758464 28.649573540034673 a84.0,84.0 0 0,0 -0.666767724100203,1.2786150275819885 l -55.608764294509484 -29.608534810721164" fill="#4dd2ff" stroke="none" /><line stroke="#e1ed5e" stroke-width="0.3" x1="174.33088141563837" x2="178.70328620479359" y1="141.23008692659167" y2="143.65538615756765" /><path d="M 175.20536237346943 141.71514677278685 a86.0,86.0 0 0,1 -30.301960400862466,31.631185727798858" fill="none" id="id53" stroke="none" /><text fill="#e1ed5e" style="font-size:6.75px; font-family:Arial;" text-anchor="middle"><textPath startOffset="22.145653131862474" xlink:href="#id53">May</textPath></text><path d="M 118.00360718960297 110.81064883170644 l 20.489507242599707 12.303360387821035 a44.899635643188155,44.899635643188155 0 0,0 -0.4024547529679987,0.6573795933243457 l -20.275284525176303 -12.653277097269939" fill="#ffe515" stroke="none" /><path d="M 114.91283532996324 114.78537596483092 l 16.924748825793017 16.78009372214379 a44.83314222128739,44.83314222128739 0 0,0 -0.5465546026005709,0.5418832238106722 l -16.63420230306248 -17.068156956183124" fill="#ffe415" stroke="none" /><path d="M 114.65682725009322 115.03919595460226 l 16.781715655491 17.219518650991848 a45.0444963123291,45.0444963123291 0 0,0 -0.5583962738303692,0.5349309988947574 l -16.483646895795317 -17.505061780192182" fill="#ffe715" stroke="none" /><path d="M 114.39649973595853 115.28858382429668 l 18.088869200906842 19.209752240959542 a47.386014669263076,47.386014669263076 0 0,0 -0.5969966065507921,0.5525711463815841 l -17.756442823042082 -19.517441133473504" fill="#f6ff19" stroke="none" /><path d="M 113.59037401385872 116.0094264158162 l 15.420798515326105 18.165661876007825 a44.82839269115162,44.82839269115162 0 0,0 -0.5909356978657184,0.4929795765159826 l -15.106688483298491 -18.427703636435677" fill="#ffe415" stroke="none" /><path d="M 112.16784306229584 117.11559508785304 l 14.28551762785344 20.09436956796128 a45.654810934775384,45.654810934775384 0 0,0 -0.6426564868501702,0.44862413903942394 l -13.938466049829511 -20.336638522805828" fill="#fff016" stroke="none" /><path d="M 111.5731344415666 117.5232005979908 l 13.18421576938339 19.962583068621576 a44.923383293867,44.923383293867 0 0,0 -0.6471413759057233,0.4194692213218008 l -12.839588761220657 -20.185966131647273" fill="#ffe515" stroke="none" /><line stroke="#e1ed5e" stroke-width="0.3" x1="143.1302829299769" x2="145.66735839644613" y1="173.24464959558577" y2="177.55315839532614" /><path d="M 143.63769802327073 174.10635135553383 a86.0,86.0 0 0,1 -40.68552437913181,11.842963189579606" fill="none" id="id54" stroke="none" /><text fill="#e1ed5e" style="font-size:6.75px; font-family:Arial;" text-anchor="middle"><textPath startOffset="21.407464694133747" xlink:href="#id54">June</textPath></text><path d="M 107.74402155503746 119.51999308798841 l 6.150218973810652 15.502569434392317 a37.67797507175183,37.67797507175183 0 0,0 -0.6032562053428723,0.23335245964591247 l -5.883190505974251 -15.60586178217627" fill="#ff790b" stroke="none" /><path d="M 106.0420521117495 120.11202640906438 l 6.8387466200874325 22.76396331647538 a44.769023564454514,44.769023564454514 0 0,0 -0.737921393442278,0.2147981630494258 l -6.446965214263548 -22.878005173827322" fill="#ffe315" stroke="none" /><path d="M 104.64783097203109 120.47920084513623 l 5.7352986851494805 25.270784240394818 a46.91343642075409,46.91343642075409 0 0,0 -0.7868893082351541,0.17149886228370395 l -5.3006469602951904 -25.36551456081224" fill="#fdff18" stroke="none" /><line stroke="#e1ed5e" stroke-width="0.3" x1="101.45913802915013" x2="101.54496967792366" y1="184.9874750549273" y2="189.98673829345242" /><path d="M 101.47630435890484 185.9873277026323 a86.0,86.0 0 0,1 -42.54439059252881,-10.42667462771756" fill="none" id="id55" stroke="none" /><text fill="#e1ed5e" style="font-size:6.75px; font-family:Arial;" text-anchor="middle"><textPath startOffset="22.145653131862474" xlink:href="#id55">July</textPath></text><path d="M 93.95794788825049 120.11202640906438 l -4.117323122454482 13.705229587878973 a35.31033429907113,35.31033429907113 0 0,0 -0.5790211605866277,-0.17938223565299163 l 4.351984915912744 -13.632530764419332" fill="#ff5407" stroke="none" /><path d="M 93.61358852112213 120.00534299687104 l -7.253067459427757 22.720130512290627 a44.84976557676258,44.84976557676258 0 0,0 -0.7314297586604818,-0.24043548971272677 l 7.642019955735982 -22.592274101175878" fill="#ffe415" stroke="none" /><line stroke="#e1ed5e" stroke-width="0.3" x1="58.13341422392154" x2="55.67067388415222" y1="173.97424548756322" y2="178.32567169271397" /><path d="M 57.64086615596768 174.84453072859336 a86.0,86.0 0 0,1 -31.369924170532247,-30.572349798747897" fill="none" id="id56" stroke="none" /><text fill="#e1ed5e" style="font-size:6.75px; font-family:Arial;" text-anchor="middle"><textPath startOffset="22.145653131862474" xlink:href="#id56">August</textPath></text><path d="M 86.13680546590413 115.77377054828092 l -10.042725889396797 11.426778544369386 a36.21274502486718,36.21274502486718 0 0,0 -0.4634110029957043,-0.4143849764128044 l 10.237401919215872 -11.252698038073198" fill="#ff6209" stroke="none" /><line stroke="#e1ed5e" stroke-width="0.3" x1="26.387840678322732" x2="22.057713659400548" y1="142.50000000000003" y2="145.00000000000006" /><path d="M 25.521815274538298 143.00000000000003 a86.0,86.0 0 0,1 -11.493303480769221,-40.785679425670985" fill="none" id="id57" stroke="none" /><text fill="#e1ed5e" style="font-size:6.75px; font-family:Arial;" text-anchor="middle"><textPath startOffset="21.40746469413373" xlink:href="#id57">September</textPath></text><path d="M 81.63589988554817 110.18625677009913 l -16.978991531786583 9.417960388051368 a40.41607919502249,40.41607919502249 0 0,0 -0.33132457065420223,-0.6095998921396037 l 17.138161452056117 -9.125105662437177" fill="#ffa30f" stroke="none" /><path d="M 81.29705330413844 109.54985784667822 l -17.235175543151264 8.800403437820828 a40.351960538189616,40.351960538189616 0 0,0 -0.3097110715058079,-0.6196296102335 l 17.38370652786881 -8.503241971423575" fill="#ffa20f" stroke="none" /><path d="M 80.9802524753101 108.90220220490708 l -15.092374785507717 7.063993458294938 a37.663726481344526,37.663726481344526 0 0,0 -0.2690544801738902,-0.5879325957827202 l 15.211413730536664 -6.803871880297529" fill="#ff790b" stroke="none" /><path d="M 80.05021161711548 106.5578916946017 l -15.36337963983222 5.0502480431073575 a37.17215011229246,37.17215011229246 0 0,0 -0.19406567822532056,-0.6079079729920591 l 15.447810033834795 -4.785771036423907" fill="#ff710a" stroke="none" /><path d="M 79.64726062577567 105.17358676015961 l -12.126973459488541 3.0826292312411603 a33.51263714268267,33.51263714268267 0 0,0 -0.13694296600835873,-0.558774033215838 l 12.178103952013194 -2.873999373417223" fill="#ff3705" stroke="none" /><path d="M 79.48165901384964 104.47187691870673 l -14.810456488038845 3.2278700587477354 a36.15812542830584,36.15812542830584 0 0,0 -0.12697061625633072,-0.6076003626670405 l 14.863684815119543 -2.9731532447952858" fill="#ff6109" stroke="none" /><path d="M 79.407916724674 104.11899336999214 l -12.113565472074555 2.423052354602081 a33.35352788313442,33.35352788313442 0 0,0 -0.10748366177724611,-0.5623999366908439 l 12.153375426133959 -2.214749852877923" fill="#ff3404" stroke="none" /><path d="M 79.2786578344484 103.40968896794605 l -16.423862457944182 2.7025403174420664 a37.64472836080145,37.64472836080145 0 0,0 -0.09945111230083366,-0.6385474823856091 l 16.467835062383283 -2.4202046531250074" fill="#ff780b" stroke="none" /><path d="M 79.22317932658666 103.0534771498775 l -9.116164936802273 1.3397623133292946 a30.2140884633913,30.2140884633913 0 0,0 -0.07101099728353587,-0.5138002022549496 l 9.137820450641021 -1.1830738028742593" fill="#ff0000" stroke="none" /><path d="M 79.01933749520258 100.90099992219065 l -16.624656187293827 0.7139342681754205 a37.63997883066568,37.63997883066568 0 0,0 -0.022181262831499904,-0.6457832654584758 l 16.634462137122174 -0.42844473815282486" fill="#ff780b" stroke="none" /><line stroke="#e1ed5e" stroke-width="0.3" x1="15.003131293944662" x2="10.003315487706104" y1="100.72959589197737" y2="100.7725132973878" /><path d="M 14.003168132696942 100.73817937305945 a86.0,86.0 0 0,1 10.791469493833604,-42.45332614584628" fill="none" id="id58" stroke="none" /><text fill="#e1ed5e" style="font-size:6.75px; font-family:Arial;" text-anchor="middle"><textPath startOffset="22.145653131862435" xlink:href="#id58">October</textPath></text><path d="M 79.06263194458094 98.37931529534042 l -15.2336685222138 -1.179182288072547 a36.27923844676794,36.27923844676794 0 0,0 0.05339332531782636,-0.6205113746341927 l 15.21118157419823 1.4405147100824205" fill="#ff6309" stroke="none" /><path d="M 79.0935383218832 98.0201363427161 l -16.457108321105675 -1.5585052683997096 a37.530739637543,37.530739637543 0 0,0 0.0662464155598719,-0.6408739766381121 l 16.42792951306414 1.8407837673207343" fill="#ff770a" stroke="none" /><path d="M 79.22317932658666 96.9465228501225 l -21.688484157634477 -3.187460287201724 a42.921456341640486,42.921456341640486 0 0,0 0.11339135014698613,-0.728053809409793 l 21.630571315349226 3.5593022785429667" fill="#ffc812" stroke="none" /><path d="M 79.407916724674 95.88100663000787 l -18.689634078983158 -3.738450249526387 a40.05986443483984,40.05986443483984 0 0,0 0.14067171940431536,-0.6731651010853196 l 18.622704648754475 4.058731801897116" fill="#ff9e0e" stroke="none" /><path d="M 79.48165901384962 95.52812308129327 l -20.915158198837883 -4.558361383291876 a42.40613232190958,42.40613232190958 0 0,0 0.16112136964937898,-0.7099304835629855 l 20.83382596763084 4.91672620079387" fill="#ffc111" stroke="none" /><path d="M 79.83685265289637 94.1308016681162 l -15.988274224061428 -4.6539536110190465 a37.651852656005104,37.651852656005104 0 0,0 0.18597089124580762,-0.6190366132029194 l 15.90602701281199 4.927727827812689" fill="#ff790b" stroke="none" /><path d="M 80.05021161711548 93.44210830539832 l -15.821348225278038 -5.200791413555342 a37.65422742107299,37.65422742107299 0 0,0 0.20712439078874004,-0.6123264577745492 l 15.729738412916932 5.471619545804052" fill="#ff790b" stroke="none" /><path d="M 80.83023694016515 91.42560881287825 l -14.44835008038006 -6.462563215360251 a36.827809177449225,36.827809177449225 0 0,0 0.2630830239033936,-0.5748838861554046 l 14.33528259162162 6.709636083730327" fill="#ff6c09" stroke="none" /><path d="M 81.29705330413844 90.45014215332179 l -14.821954866413558 -7.568195765400457 a37.64235359573357,37.64235359573357 0 0,0 0.2987941242476639,-0.5729771307269321 l 14.689852673190954 7.821519139231875" fill="#ff780b" stroke="none" /><line stroke="#e1ed5e" stroke-width="0.3" x1="26.387840678322718" x2="22.05771365940052" y1="57.49999999999999" y2="54.99999999999999" /><path d="M 25.521815274538284 56.99999999999999 a86.0,86.0 0 0,1 29.574782752854787,-30.34633250058573" fill="none" id="id59" stroke="none" /><text fill="#e1ed5e" style="font-size:6.75px; font-family:Arial;" text-anchor="middle"><textPath startOffset="21.40746469413373" xlink:href="#id59">November</textPath></text><path d="M 82.576782715395 88.27688183743585 l -16.357330888093237 -11.00594222599255 a40.71529959357592,40.71529959357592 0 0,0 0.3951521869433368,-0.5765388500165053 l 16.165988964334584 11.28511581107909" fill="#ffa70f" stroke="none" /><path d="M 83.2033758604659 87.39550010848427 l -19.207039176721974 -14.413320272465517 a45.01362436644661,45.01362436644661 0 0,0 0.46910203260537314,-0.6140696190579763 l 18.956785166762295 14.740910804764377" fill="#ffe615" stroke="none" /><path d="M 83.8745106332314 86.54754324733833 l -20.264951784681127 -16.905743526766905 a47.390764199398845,47.390764199398845 0 0,0 0.5265010917748647,-0.6202169622426259 l 19.971756129399147 17.251127271459087" fill="#f6ff19" stroke="none" /><path d="M 84.83555147118756 85.47280134310135 l -36.22807465579383 -34.705676008047156 a71.1692868241249,71.1692868241249 0 0,0 0.8527205675063863,-0.8749664228434341 l 35.62696728713665 35.32246512295832" fill="#3bff98" stroke="none" /><path d="M 87.54013794807813 83.09580414077388 l -24.05042026152433 -32.62901410170898 a61.53486494371806,61.53486494371806 0 0,0 0.8556832898875664,-0.6194487134649399 l 23.486755961262798 33.037063586547" fill="#43ff2d" stroke="none" /><line stroke="#e1ed5e" stroke-width="0.3" x1="56.869717070023135" x2="54.33264160355391" y1="26.7553504044142" y2="22.446841604673864" /><path d="M 56.362301976729285 25.89364864446614 a86.0,86.0 0 0,1 42.16139366436587,-11.88097634709845" fill="none" id="id60" stroke="none" /><text fill="#e1ed5e" style="font-size:6.75px; font-family:Arial;" text-anchor="middle"><textPath startOffset="22.145653131862474" xlink:href="#id60">December</textPath></text></svg>