<?xml version="1.0" encoding="utf-8" ?>
<svg baseProfile="full" height="200mm" version="1.1" viewBox="0,0,200,200" width="200mm" xmlns="http://www.w3.org/2000/svg" xmlns:ev="http://www.w3.org/2001/xml-events" xmlns:xlink="http://www.w3.org/1999/xlink"><defs /><rect fill="#1a1a1a" height="200" width="200" x="0" y="0" /><text alignment-baseline="middle" fill="#e1ed5e" style="dominant-baseline: central; font-size:9.0px; font-family:Arial;" text-anchor="middle" x="100.0" y="100.0">2021</text><line stroke="#e1ed5e" stroke-width="0.3" x1="100.0" x2="100.0" y1="15.0" y2="10.0" /><path d="M 100.0 14.0 a86.0,86.0 0 0,1 42.46469731375804,11.215312516191453" fill="none" id="id61" stroke="none" /><text fill="#e1ed5e" style="font-size:6.75px; font-family:Arial;" text-anchor="middle"><textPath startOffset="22.20632615414155" xlink:href="#id61">January</textPath></text><line stroke="#e1ed5e" stroke-width="0.3" x1="143.23703022742887" x2="145.7803849466894" y1="26.81831364943548" y2="22.513508569990506" /><path d="M 143.74570117128098 25.957352633546492 a86.0,86.0 0 0,1 28.547481713284135,27.462654790039103" fill="none" id="id62" stroke="none" /><text fill="#e1ed5e" style="font-size:6.75px; font-family:Arial;" text-anchor="middle"><textPath startOffset="19.985693538727396" xlink:href="#id62">February</textPath></text><line stroke="#e1ed5e" stroke-width="0.3" x1="172.23445277983987" x2="176.4835382374775" y1="55.19839476539836" y2="52.563006222186495" /><path d="M 173.08426987136738 54.67131705675599 a86.0,86.0 0 0,1 12.851231095245387,41.99856678651699" fill="none" id="id63" stroke="none" /><text fill="#e1ed5e" style="font-size:6.75px; font-family:Arial;" text-anchor="middle"><textPath startOffset="22.20632615414155" xlink:href="#id63">March</textPath></text><path d="M 119.47837535516314 92.15188598940014 l 13.625665220001121 -5.489973992542886 a35.690083972746564,35.690083972746564 0 0,0 0.2246885384028972,0.5718078222849332 l -13.718147308285719 5.254617165362169" fill="#ffa50f" stroke="none" /><line stroke="#e1ed5e" stroke-width="0.3" x1="184.98032266829074" x2="189.97916517819016" y1="98.17113171792111" y2="98.06355123074" /><path d="M 185.9800911702706 98.14961562048488 a86.0,86.0 0 0,1 -9.607161424134198,41.387399972396054" fill="none" id="id64" stroke="none" /><text fill="#e1ed5e" style="font-size:6.75px; font-family:Arial;" text-anchor="middle"><textPath startOffset="21.466115282336823" xlink:href="#id64">April</textPath></text><path d="M 120.99980553446 99.90962569577887 l 21.463205015291223 -0.09236858010086774 a42.46340377207241,42.46340377207241 0 0,0 -0.0031457348735781437,0.7309579993720989 l -21.461614983128143 -0.27709889747491595" fill="#fffe18" stroke="none" /><path d="M 120.89721153311464 102.0752229133903 l 26.225806135664183 2.604385457295052 a47.35480470570046,47.35480470570046 0 0,0 -0.08753354912106905,0.8104519517931492 l -26.177090285042063 -3.0554337309729926" fill="#c4ff1e" stroke="none" /><path d="M 120.76222939487914 103.15116336523771 l 30.015764099803985 4.55560789797689 a51.359506877009565,51.359506877009565 0 0,0 -0.14018270624093002,0.8729178455771139 l -29.932899639201768 -5.071604973247209" fill="#96ff23" stroke="none" /><path d="M 120.41448212921028 104.9243191809786 l 29.302037935092237 7.068148314136007 a51.14246419488971,51.14246419488971 0 0,0 -0.2137966531133941,0.8540113532268234 l -29.17602996768378 -7.571487506760226" fill="#98ff23" stroke="none" /><path d="M 120.02730092923936 106.31721596034902 l 12.671795080548414 3.9970671241196034 a34.2872471248987,34.2872471248987 0 0,0 -0.18238815215105197,0.561333013251112 l -12.601114677381114 -4.214599037348511" fill="#ff920d" stroke="none" /><line stroke="#e1ed5e" stroke-width="0.3" x1="174.80103733775053" x2="179.2010983576182" y1="140.37084112569926" y2="142.7455964860345" /><path d="M 175.68104954172406 140.8457921977663 a86.0,86.0 0 0,1 -30.038265399797805,32.042727171017184" fill="none" id="id65" stroke="none" /><text fill="#e1ed5e" style="font-size:6.75px; font-family:Arial;" text-anchor="middle"><textPath startOffset="22.206326154141568" xlink:href="#id65">May</textPath></text><path d="M 118.12598468904814 110.60418214915192 l 54.37795406714442 31.812546447455787 a84.0,84.0 0 0,0 -0.7408764972070911,1.2417516244555835 l -53.8222966942391 -32.74386016579747" fill="#4dd2ff" stroke="none" /><path d="M 116.0416608686014 113.55231037782055 l 20.237274408646677 17.09684715526693 a47.492441528508174,47.492441528508174 0 0,0 -0.5329499802364174,0.6199412304617227 l -19.93998191883948 -17.442665484890178" fill="#c3ff1e" stroke="none" /><path d="M 115.32070863581623 114.36230785411682 l 2.3246030353476166 2.1791853905652028 a24.186318916618387,24.186318916618387 0 0,0 -0.28734895790263376,0.30128423355491696 l -2.2867475260660184 -2.218876740702627" fill="#ff0000" stroke="none" /><path d="M 114.29624159901734 115.38237550388516 l 23.68074396495965 25.47985030593003 a55.785060102673036,55.785060102673036 0 0,0 -0.7090027464010241,0.6476571985444716 l -23.23864166909176 -25.883700271061084" fill="#65ff29" stroke="none" /><path d="M 113.48314897796784 116.09983520530334 l 25.291192259309348 30.199475522067114 a60.391023440693694,60.391023440693694 0 0,0 -0.8027113623835893,0.6605768029303761 l -24.76761076838107 -30.630347443854667" fill="#35ff2f" stroke="none" /><path d="M 111.7513745106137 117.40417183066458 l 31.341251257102225 46.417423066040364 a77.00759943483195,77.00759943483195 0 0,0 -1.1049684809053764,0.732312857054429 l -30.537608077456884 -46.95003394418611" fill="#44ffe7" stroke="none" /><line stroke="#e1ed5e" stroke-width="0.3" x1="143.8653032363475" x2="146.44561519142675" y1="172.8068346515853" y2="177.08958963109032" /><path d="M 144.38136562736335 173.6633856474863 a86.0,86.0 0 0,1 -40.68145358897372,12.25698825130547" fill="none" id="id66" stroke="none" /><text fill="#e1ed5e" style="font-size:6.75px; font-family:Arial;" text-anchor="middle"><textPath startOffset="21.466115282336833" xlink:href="#id66">June</textPath></text><path d="M 110.8373102113329 117.98757091392108 l 13.689510016017095 22.72160041450493 a47.5268507342101,47.5268507342101 0 0,0 -0.7043753779678338,0.41615738892325776 l -13.29636676702088 -22.953876375721936" fill="#c2ff1e" stroke="none" /><path d="M 110.21172684928248 118.3499491758327 l 19.346351082910864 34.76440021837972 a60.78498237736101,60.78498237736101 0 0,0 -0.9186555613114561,0.5009242587152349 l -18.74507270973076 -35.09226512885472" fill="#31ff2f" stroke="none" /><path d="M 107.59598834532513 119.57807347666477 l 20.30467324417327 52.33372757065209 a77.13464880973137,77.13464880973137 0 0,0 -1.2419772273222953,0.4696095156064113 l -19.400825796090697 -52.67548533636513" fill="#44ffe8" stroke="none" /><path d="M 104.83641907484287 120.43548508189849 l 6.114770423344412 25.836946267843583 a47.55067249200374,47.55067249200374 0 0,0 -0.7981263779166867,0.18165096513744233 l -5.669123896034864 -25.93837396655871" fill="#c2ff1e" stroke="none" /><path d="M 103.7750983002368 120.6578951692458 l 8.585172274730757 46.97933000848702 a68.75733065230023,68.75733065230023 0 0,0 -1.1660949538406225,0.20274055481388684 l -7.775228349418085 -47.12014914182191" fill="#39ff8d" stroke="none" /><line stroke="#e1ed5e" stroke-width="0.3" x1="102.19456741930631" x2="102.32365962044197" y1="184.97166512339345" y2="189.96999836594603" /><path d="M 102.22038585953345 185.97133177190398 a86.0,86.0 0 0,1 -42.740103519485714,-10.115201625700543" fill="none" id="id67" stroke="none" /><text fill="#e1ed5e" style="font-size:6.75px; font-family:Arial;" text-anchor="middle"><textPath startOffset="22.20632615414155" xlink:href="#id67">July</textPath></text><path d="M 95.86986931433489 120.58985236759428 l -5.21607125903212 26.00356873332882 a47.52155701025596,47.52155701025596 0 0,0 -0.800644411257083,-0.16778282089872332 l 5.6629071317185895 -25.909929931703555" fill="#c2ff1e" stroke="none" /><path d="M 93.76903079525671 120.05430185196036 l -7.9446803084623285 25.56986109030097 a47.77565576005482,47.77565576005482 0 0,0 -0.7832446905938066,-0.25077021587603027 l 8.383646344147076 -25.429318027765238" fill="#bfff1e" stroke="none" /><path d="M 93.08242187328487 119.8279376855182 l -8.734682043406705 25.03632457588506 a47.51626328630182,47.51626328630182 0 0,0 -0.7699454737283987,-0.2760750535311648 l 9.16434707776483 -24.88226198131394" fill="#c3ff1e" stroke="none" /><path d="M 92.06813273071674 119.44442032107085 l -20.105788265228462 49.28793998224366 a74.231041220884,74.231041220884 0 0,0 -1.1789605161135788,-0.49280559135200663 l 20.9512202408395 -48.93454934787167" fill="#40ffca" stroke="none" /><path d="M 90.7491055286396 118.85261126421891 l -11.706563901649961 23.857076649269093 a47.57449424979739,47.57449424979739 0 0,0 -0.7320719957519527,-0.3670760962353649 l 12.115489805084673 -23.652032712124424" fill="#c2ff1e" stroke="none" /><line stroke="#e1ed5e" stroke-width="0.3" x1="58.666819895761336" x2="56.23545636021788" y1="174.27360380694188" y2="178.64263932499728" /><path d="M 58.180547188652646 175.14741091055294 a86.0,86.0 0 0,1 -31.652253787137756,-30.449443065178592" fill="none" id="id68" stroke="none" /><text fill="#e1ed5e" style="font-size:6.75px; font-family:Arial;" text-anchor="middle"><textPath startOffset="22.20632615414155" xlink:href="#id68">August</textPath></text><path d="M 89.7882731507175 118.34994917583269 l -12.891560937158891 23.165473527196543 a47.510969562347675,47.510969562347675 0 0,0 -0.7111967555568087,-0.40383607890031453 l 13.288406459636908 -22.940134282501596" fill="#c3ff1e" stroke="none" /><path d="M 88.24862548938628 117.40417183066458 l -15.23516589936454 22.563781363766125 a48.22562229615697,48.22562229615697 0 0,0 -0.6839842659851045,-0.4704506150460712 l 15.621307049972536 -22.298189959354954" fill="#baff1f" stroke="none" /><path d="M 86.24171649860922 115.8653595955263 l -17.595998451620897 20.29081918896855 a47.857708481344034,47.857708481344034 0 0,0 -0.6177237074397883,-0.545069350311693 l 17.942664511967273 -19.984926696884568" fill="#beff1e" stroke="none" /><path d="M 82.44556493220864 111.52570212397912 l -22.238635219108204 14.601203866113417 a47.60360973154518,47.60360973154518 0 0,0 -0.4438359652920803,-0.6888432744374153 l 22.48667604777733 -14.216238991754553" fill="#c2ff1e" stroke="none" /><line stroke="#e1ed5e" stroke-width="0.3" x1="26.63291911575756" x2="22.317208475507996" y1="142.92168965132927" y2="145.44649492493687" /><path d="M 25.769776987707644 143.4266507060508 a86.0,86.0 0 0,1 -11.730757126820373,-40.83630448921669" fill="none" id="id69" stroke="none" /><text fill="#e1ed5e" style="font-size:6.75px; font-family:Arial;" text-anchor="middle"><textPath startOffset="21.46611528233685" xlink:href="#id69">September</textPath></text><path d="M 79.86692584326677 105.97154293290107 l -18.20469746582764 5.399579401107435 a39.9885878235106,39.9885878235106 0 0,0 -0.1900550240625257,-0.6616064716384141 l 18.29494512677627 -5.085415453964425" fill="#ffde14" stroke="none" /><path d="M 79.4281124754447 104.21870165774334 l -26.01458810002742 5.334842795154176 a47.55596621595789,47.55596621595789 0 0,0 -0.15754627414529201,-0.8033250576729122 l 26.10256430714838 -4.8862540104133085" fill="#c2ff1e" stroke="none" /><path d="M 79.1416061653843 102.43462659150553 l -26.461865058535658 3.088673118513346 a47.64151279505684,47.64151279505684 0 0,0 -0.08806351808153788,-0.8153588061674593 l 26.51111087811825 -2.6327179904611047" fill="#c1ff1e" stroke="none" /><path d="M 79.04373962182676 101.35467743843564 l -21.976419793837774 1.4206236959772696 a43.02228867853105,43.02228867853105 0 0,0 -0.04141130701729272,-0.7394267053363593 l 21.997617451742595 -1.0421252743054727" fill="#f9ff18" stroke="none" /><line stroke="#e1ed5e" stroke-width="0.3" x1="15.007084014347285" x2="10.007500721073583" y1="101.09737516637583" y2="101.16192664675087" /><path d="M 14.007167355692545 101.11028546245083 a86.0,86.0 0 0,1 10.666146001902534,-42.60595125391555" fill="none" id="id70" stroke="none" /><text fill="#e1ed5e" style="font-size:6.75px; font-family:Arial;" text-anchor="middle"><textPath startOffset="22.20632615414155" xlink:href="#id70">October</textPath></text><path d="M 79.00175016825051 100.2711162175752 l -4.854469626594356 0.06267786382396431 a25.854874238344458,25.854874238344458 0 0,0 -0.0019153570443881517,-0.44506152282845185 l 4.8548292809282465 0.020893137208162927" fill="#ff1902" stroke="none" /><path d="M 79.00019446554 99.90962569577889 l -26.656035440682746 -0.11471633164850512 a47.656282284888896,47.656282284888896 0 0,0 0.010591025248557854,-0.8202865772201133 l 26.650111408316473 0.5735391669290905" fill="#c1ff1e" stroke="none" /><path d="M 81.6062741919709 89.86733742301443 l -23.927445370400743 -13.181056018661218 a48.31781249881837,48.31781249881837 0 0,0 0.4075776796967029,-0.7250352134408019 l 23.69701004941161 13.590974742036805" fill="#b9ff1f" stroke="none" /><line stroke="#e1ed5e" stroke-width="0.3" x1="26.266209847984243" x2="21.928928074336255" y1="57.711370442889674" y2="55.22380399835377" /><path d="M 25.398753493254645 57.213857153982495 a86.0,86.0 0 0,1 29.58750427330803,-30.492523968695096" fill="none" id="id71" stroke="none" /><text fill="#e1ed5e" style="font-size:6.75px; font-family:Arial;" text-anchor="middle"><textPath startOffset="21.46611528233685" xlink:href="#id71">November</textPath></text><path d="M 86.65592168130627 83.78471172551755 l -16.89811579436304 -20.534038571800338 a47.5931016894962,47.5931016894962 0 0,0 0.637059958890072,-0.5151248488719293 l 16.542152436908466 20.821869517936403" fill="#c2ff1e" stroke="none" /><path d="M 89.00827224532344 82.1063720568725 l -13.998960898883414 -22.78915594579157 a47.745402127656895,47.745402127656895 0 0,0 0.7039898886864352,-0.4241460309369547 l 13.60460894397933 23.026748586187146" fill="#c0ff1e" stroke="none" /><line stroke="#e1ed5e" stroke-width="0.3" x1="56.762969772571076" x2="54.21961505331055" y1="26.818313649435495" y2="22.513508569990535" /><path d="M 56.25429882871897 25.957352633546506 a86.0,86.0 0 0,1 42.265352541879196,-11.944610805530505" fill="none" id="id72" stroke="none" /><text fill="#e1ed5e" style="font-size:6.75px; font-family:Arial;" text-anchor="middle"><textPath startOffset="22.20632615414155" xlink:href="#id72">December</textPath></text><path d="M 90.26544431104013 81.39251694778311 l -7.792369958414095 -14.895018999402017 a37.81019394776103,37.81019394776103 0 0,0 0.5792873030917576,-0.2967334562845188 l 7.534822167733574 15.02694498099904" fill="#ffc112" stroke="none" /></svg>