<?xml version="1.0" encoding="utf-8" ?>
<svg baseProfile="full" height="200mm" version="1.1" viewBox="0,0,200,200" width="200mm" xmlns="http://www.w3.org/2000/svg" xmlns:ev="http://www.w3.org/2001/xml-events" xmlns:xlink="http://www.w3.org/1999/xlink"><defs /><rect fill="#1a1a1a" height="200" width="200" x="0" y="0" /><text alignment-baseline="middle" fill="#e1ed5e" style="dominant-baseline: central; font-size:9.0px; font-family:Arial;" text-anchor="middle" x="100.0" y="100.0">2021</text><line stroke="#e1ed5e" stroke-width="0.3" x1="100.0" x2="100.0" y1="15.0" y2="10.0" /><path d="M 100.0 14.0 a86.0,86.0 0 0,1 42.46469731375804,11.215312516191453" fill="none" id="id13" stroke="none" /><text fill="#e1ed5e" style="font-size:6.75px; font-family:Arial;" text-anchor="middle"><textPath startOffset="22.20632615414155" xlink:href="#id13">January</textPath></text><line stroke="#e1ed5e" stroke-width="0.3" x1="143.23703022742887" x2="145.7803849466894" y1="26.81831364943548" y2="22.513508569990506" /><path d="M 143.74570117128098 25.957352633546492 a86.0,86.0 0 0,1 28.547481713284135,27.462654790039103" fill="none" id="id14" stroke="none" /><text fill="#e1ed5e" style="font-size:6.75px; font-family:Arial;" text-anchor="middle"><textPath startOffset="19.985693538727396" xlink:href="#id14">February</textPath></text><line stroke="#e1ed5e" stroke-width="0.3" x1="172.23445277983987" x2="176.4835382374775" y1="55.19839476539836" y2="52.563006222186495" /><path d="M 173.08426987136738 54.67131705675599 a86.0,86.0 0 0,1 12.851231095245387,41.99856678651699" fill="none" id="id15" stroke="none" /><text fill="#e1ed5e" style="font-size:6.75px; font-family:Arial;" text-anchor="middle"><textPath startOffset="22.20632615414155" xlink:href="#id15">March</textPath></text><path d="M 119.47837535516314 92.15188598940014 l 15.291080268762704 -6.160993363477488 a37.48559901885757,37.48559901885757 0 0,0 0.23599228461148442,0.6005746234272494 l -15.394866103255888 5.896869735154454" fill="#ff1d03" stroke="none" /><line stroke="#e1ed5e" stroke-width="0.3" x1="184.98032266829074" x2="189.97916517819016" y1="98.17113171792111" y2="98.06355123074" /><path d="M 185.9800911702706 98.14961562048488 a86.0,86.0 0 0,1 -9.607161424134198,41.387399972396054" fill="none" id="id16" stroke="none" /><text fill="#e1ed5e" style="font-size:6.75px; font-family:Arial;" text-anchor="middle"><textPath startOffset="21.466115282336823" xlink:href="#id16">April</textPath></text><path d="M 120.99980553446 99.90962569577887 l 24.086929723897466 -0.10365998442453991 a45.08715277728661,45.08715277728661 0 0,0 -0.003340105037343644,0.7761227801795963 l -24.085145321570618 -0.31097227395874116" fill="#ffa40f" stroke="none" /><path d="M 120.89721153311464 102.0752229133903 l 29.433890539995915 2.922968166447875 a50.57866892242666,50.57866892242666 0 0,0 -0.093492739081375,0.8656266497567398 l -29.379215499413487 -3.4291911380894065" fill="#fffd17" stroke="none" /><path d="M 120.76222939487914 103.15116336523771 l 33.68611372282657 5.112670969081163 a55.07188961864736,55.07188961864736 0 0,0 -0.15031543318807805,0.9360143459494479 l -33.593116535277204 -5.691764544723816" fill="#bdff1f" stroke="none" /><path d="M 120.41448212921028 104.9243191809786 l 32.88692672844391 7.932884266537059 a54.83017295888849,54.83017295888849 0 0,0 -0.22921280100168165,0.9155912008432334 l -32.745502613147174 -8.497803306777687" fill="#c0ff1e" stroke="none" /><path d="M 120.02730092923936 106.31721596034902 l 14.22298127670559 4.4863581289564385 a35.913772348362144,35.913772348362144 0 0,0 -0.19104031745478517,0.5879616399673308 l -14.143648708234558 -4.730518668901564" fill="#ff0000" stroke="none" /><line stroke="#e1ed5e" stroke-width="0.3" x1="174.80103733775053" x2="179.2010983576182" y1="140.37084112569926" y2="142.7455964860345" /><path d="M 175.68104954172406 140.8457921977663 a86.0,86.0 0 0,1 -30.038265399797805,32.042727171017184" fill="none" id="id17" stroke="none" /><text fill="#e1ed5e" style="font-size:6.75px; font-family:Arial;" text-anchor="middle"><textPath startOffset="22.206326154141568" xlink:href="#id17">May</textPath></text><path d="M 116.0416608686014 113.55231037782055 l 22.711377049024655 19.187017690826384 a50.73126797381922,50.73126797381922 0 0,0 -0.5692953950953601,0.6622191590570095 l -22.377739144358518 -19.575113949044923" fill="#feff18" stroke="none" /><path d="M 114.29624159901734 115.38237550388516 l 26.576759058929092 28.595885477259202 a60.039067462029536,60.039067462029536 0 0,0 -0.7630692454859539,0.6970456635542346 l -26.080590263976273 -29.04912390740002" fill="#76ff27" stroke="none" /><path d="M 111.7513745106137 117.40417183066458 l 35.17501426757627 52.09535207188325 a83.85862976726159,83.85862976726159 0 0,0 -1.2032727084701862,0.7974635387186958 l -34.27306686036613 -52.693113631693265" fill="#4dd4ff" stroke="none" /><line stroke="#e1ed5e" stroke-width="0.3" x1="143.8653032363475" x2="146.44561519142675" y1="172.8068346515853" y2="177.08958963109032" /><path d="M 144.38136562736335 173.6633856474863 a86.0,86.0 0 0,1 -40.68145358897372,12.25698825130547" fill="none" id="id18" stroke="none" /><text fill="#e1ed5e" style="font-size:6.75px; font-family:Arial;" text-anchor="middle"><textPath startOffset="21.466115282336833" xlink:href="#id18">June</textPath></text><path d="M 110.8373102113329 117.98757091392108 l 15.363731548406827 25.500442945743128 a50.771073838889514,50.771073838889514 0 0,0 -0.7524566381453712,0.4445646449368794 l -14.922507039233073 -25.761126162973756" fill="#feff18" stroke="none" /><path d="M 110.21172684928248 118.3499491758327 l 21.712568092308736 39.01637077167479 a65.65101120194191,65.65101120194191 0 0,0 -0.9921968253929605,0.5410248195200035 l -21.03774845504713 -39.38433624295456" fill="#30ff32" stroke="none" /><path d="M 107.59598834532513 119.57807347666477 l 22.787965035975386 58.73422042999433 a84.0,84.0 0 0,0 -1.3525191169589008,0.5114069995734765 l -21.77357569825621 -59.11777567967444" fill="#4dd2ff" stroke="none" /><path d="M 104.83641907484287 120.43548508189849 l 6.862453889643908 28.996158504231914 a50.79715559227138,50.79715559227138 0 0,0 -0.8526178006872075,0.19405303555117168 l -6.362315939563839 -29.10998827336077" fill="#fdff18" stroke="none" /><path d="M 103.7750983002368 120.6578951692458 l 9.635295580730768 52.72575975543407 a74.59892408169964,74.59892408169964 0 0,0 -1.265165882798847,0.21996530571154216 l -8.726280726459871 -52.88380363966662" fill="#3effb5" stroke="none" /><line stroke="#e1ed5e" stroke-width="0.3" x1="102.19456741930631" x2="102.32365962044197" y1="184.97166512339345" y2="189.96999836594603" /><path d="M 102.22038585953345 185.97133177190398 a86.0,86.0 0 0,1 -42.740103519485714,-10.115201625700543" fill="none" id="id19" stroke="none" /><text fill="#e1ed5e" style="font-size:6.75px; font-family:Arial;" text-anchor="middle"><textPath startOffset="22.20632615414155" xlink:href="#id19">July</textPath></text><path d="M 95.86986931433489 120.58985236759428 l -5.854204980525235 29.184843156903366 a50.76620207629881,50.76620207629881 0 0,0 -0.855310274542653,-0.1792385840564478 l 6.355706716497275 -29.079748592120378" fill="#feff18" stroke="none" /><path d="M 93.76903079525671 120.05430185196036 l -8.91632953514657 28.69710281560371 a51.05036842350951,51.05036842350951 0 0,0 -0.8369310558789421,-0.26795889468079315 l 9.408981936116453 -28.53937107426321" fill="#f9ff18" stroke="none" /><path d="M 93.08242187328487 119.8279376855182 l -9.802939886680178 28.09828492681942 a50.75922119697679,50.75922119697679 0 0,0 -0.8224938138571503,-0.2949170187209445 l 10.285153261167055 -27.92538036705852" fill="#feff18" stroke="none" /><path d="M 92.06813273071674 119.44442032107085 l -22.56433691986306 55.31490082230297 a80.74016700356896,80.74016700356896 0 0,0 -1.2823404790776909,-0.5360184242553689 l 23.513148858438214 -54.918297355027626" fill="#48f9ff" stroke="none" /><path d="M 90.7491055286396 118.85261126421891 l -13.138520678493986 26.775294400490978 a50.82510881542895,50.82510881542895 0 0,0 -0.782092157395445,-0.3921572436849341 l 13.597466743572191 -26.54516931589674" fill="#fdff18" stroke="none" /><line stroke="#e1ed5e" stroke-width="0.3" x1="58.666819895761336" x2="56.23545636021788" y1="174.27360380694188" y2="178.64263932499728" /><path d="M 58.180547188652646 175.14741091055294 a86.0,86.0 0 0,1 -31.652253787137756,-30.449443065178592" fill="none" id="id20" stroke="none" /><text fill="#e1ed5e" style="font-size:6.75px; font-family:Arial;" text-anchor="middle"><textPath startOffset="22.20632615414155" xlink:href="#id20">August</textPath></text><path d="M 89.7882731507175 118.34994917583269 l -14.468063570653227 25.99836786790446 a50.75298296439115,50.75298296439115 0 0,0 -0.7597267989182533,-0.4313927040772732 l 14.913439136492688 -25.745471998032553" fill="#feff18" stroke="none" /><path d="M 88.24862548938628 117.40417183066458 l -17.097674671066528 25.32221806149405 a51.55397202838749,51.55397202838749 0 0,0 -0.7311902685237763,-0.5029193340394817 l 17.531021824213195 -25.024157938089466" fill="#f2ff19" stroke="none" /><path d="M 86.24171649860922 115.8653595955263 l -19.74901463717009 22.773569017119232 a51.14397161816358,51.14397161816358 0 0,0 -0.6601411718967466,-0.5824978309009331 l 20.138098161973428 -22.43024804444601" fill="#f8ff18" stroke="none" /><path d="M 82.44556493220864 111.52570212397912 l -24.957766032540658 16.386501522843908 a50.85644850770443,50.85644850770443 0 0,0 -0.47416406112972526,-0.7359131526761177 l 25.23613495704743 -15.954466770246341" fill="#fdff18" stroke="none" /><line stroke="#e1ed5e" stroke-width="0.3" x1="26.63291911575756" x2="22.317208475507996" y1="142.92168965132927" y2="145.44649492493687" /><path d="M 25.769776987707644 143.4266507060508 a86.0,86.0 0 0,1 -11.730757126820373,-40.83630448921669" fill="none" id="id21" stroke="none" /><text fill="#e1ed5e" style="font-size:6.75px; font-family:Arial;" text-anchor="middle"><textPath startOffset="21.46611528233685" xlink:href="#id21">September</textPath></text><path d="M 79.86692584326677 105.97154293290107 l -20.430856293013573 6.059866196283801 a42.310604571026026,42.310604571026026 0 0,0 -0.20109094638042188,-0.700023965004003 l 20.532139876280098 -5.707284755775203" fill="#ff740a" stroke="none" /><path d="M 79.4281124754447 104.21870165774334 l -29.19712216077243 5.987488873539725 a50.80473058898252,50.80473058898252 0 0,0 -0.16830897677279633,-0.8582038464977298 l 29.295861070520893 -5.4840212999740405" fill="#fdff18" stroke="none" /><line stroke="#e1ed5e" stroke-width="0.3" x1="15.007084014347285" x2="10.007500721073583" y1="101.09737516637583" y2="101.16192664675087" /><path d="M 14.007167355692545 101.11028546245083 a86.0,86.0 0 0,1 10.666146001902534,-42.60595125391555" fill="none" id="id22" stroke="none" /><text fill="#e1ed5e" style="font-size:6.75px; font-family:Arial;" text-anchor="middle"><textPath startOffset="22.20632615414155" xlink:href="#id22">October</textPath></text><line stroke="#e1ed5e" stroke-width="0.3" x1="26.266209847984243" x2="21.928928074336255" y1="57.711370442889674" y2="55.22380399835377" /><path d="M 25.398753493254645 57.213857153982495 a86.0,86.0 0 0,1 29.58750427330803,-30.492523968695096" fill="none" id="id23" stroke="none" /><text fill="#e1ed5e" style="font-size:6.75px; font-family:Arial;" text-anchor="middle"><textPath startOffset="21.46611528233685" xlink:href="#id23">November</textPath></text><line stroke="#e1ed5e" stroke-width="0.3" x1="56.762969772571076" x2="54.21961505331055" y1="26.818313649435495" y2="22.513508569990535" /><path d="M 56.25429882871897 25.957352633546506 a86.0,86.0 0 0,1 42.265352541879196,-11.944610805530505" fill="none" id="id24" stroke="none" /><text fill="#e1ed5e" style="font-size:6.75px; font-family:Arial;" text-anchor="middle"><textPath startOffset="22.20632615414155" xlink:href="#id24">December</textPath></text></svg>