<?xml version="1.0" encoding="utf-8" ?>
<svg baseProfile="full" height="200mm" version="1.1" viewBox="0,0,200,200" width="200mm" xmlns="http://www.w3.org/2000/svg" xmlns:ev="http://www.w3.org/2001/xml-events" xmlns:xlink="http://www.w3.org/1999/xlink"><defs /><rect fill="#1a1a1a" height="200" width="200" x="0" y="0" /><text alignment-baseline="middle" fill="#e1ed5e" style="dominant-baseline: central; font-size:9.0px; font-family:Arial;" text-anchor="middle" x="100.0" y="100.0">2024</text><line stroke="#e1ed5e" stroke-width="0.3" x1="100.0" x2="100.0" y1="15.0" y2="10.0" /><path d="M 100.0 14.0 a86.0,86.0 0 0,1 42.35913384403234,11.155469271406648" fill="none" id="id97" stroke="none" /><text fill="#e1ed5e" style="font-size:6.75px; font-family:Arial;" text-anchor="middle"><textPath startOffset="22.145653131862478" xlink:href="#id97">January</textPath></text><path d="M 103.23170211078529 79.25015418208739 l 5.627423936780007 -36.13209851567709 a57.567696718700226,57.567696718700226 0 0,0 0.975148800964743,0.16046036411110984 l -6.24685024079782 36.03017215307032" fill="red" stroke="none" /><path d="M 104.9986988182912 79.60360301121754 l 10.648709460947195 -43.45036848167835 a65.73622172666455,65.73622172666455 0 0,0 1.0937089483170674,0.2780165377466263 l -11.393023702489657 43.261166712096454" fill="red" stroke="none" /><path d="M 107.06938296918511 80.22567764915836 l 7.427468949465598 -20.77595256867657 a43.06371455877668,43.06371455877668 0 0,0 0.6939632465123923,0.254832916511901 l -7.783021347632115 20.645388803155946" fill="red" stroke="none" /><path d="M 107.40779381753099 80.34994680014964 l 11.870405512004103 -31.48766090960412 a54.65084421790379,54.65084421790379 0 0,0 0.8750061763906934,0.3384711863014863 l -12.409183950888323 31.279249835164595" fill="red" stroke="none" /><path d="M 107.74402155503746 80.48000691201159 l 11.66907357608385 -29.413688214777043 a52.64383561643835,52.64383561643835 0 0,0 0.8371511452349251,0.34046208282177076 l -12.172279182509214 29.20903887537598" fill="red" stroke="none" /><path d="M 108.4095320186766 80.7573450057729 l 9.457039829859314 -21.63955786225603 a44.61580121057662,44.61580121057662 0 0,0 0.6991648666313454,0.3127275518261208 l -9.82711809934629 21.474026559520055" fill="red" stroke="none" /><line stroke="#e1ed5e" stroke-width="0.3" x1="143.13028292997686" x2="145.6673583964461" y1="26.7553504044142" y2="22.446841604673864" /><path d="M 143.63769802327073 25.89364864446614 a86.0,86.0 0 0,1 29.32050498858742,28.57503671076993" fill="none" id="id98" stroke="none" /><text fill="#e1ed5e" style="font-size:6.75px; font-family:Arial;" text-anchor="middle"><textPath startOffset="20.669276256404974" xlink:href="#id98">February</textPath></text><line stroke="#e1ed5e" stroke-width="0.3" x1="172.87174338648825" x2="177.1583165268699" y1="56.24261187166439" y2="53.66864786411523" /><path d="M 173.72905801456457 55.72781907015455 a86.0,86.0 0 0,1 12.242430191666344,42.057860355516425" fill="none" id="id99" stroke="none" /><text fill="#e1ed5e" style="font-size:6.75px; font-family:Arial;" text-anchor="middle"><textPath startOffset="22.145653131862474" xlink:href="#id99">March</textPath></text><line stroke="#e1ed5e" stroke-width="0.3" x1="184.99686870605535" x2="189.99668451229388" y1="99.2704041080226" y2="99.22748670261217" /><path d="M 185.99683186730306 99.26182062694052 a86.0,86.0 0 0,1 -10.086455211305974,41.156179273409016" fill="none" id="id100" stroke="none" /><text fill="#e1ed5e" style="font-size:6.75px; font-family:Arial;" text-anchor="middle"><textPath startOffset="21.40746469413373" xlink:href="#id100">April</textPath></text><line stroke="#e1ed5e" stroke-width="0.3" x1="174.33088141563837" x2="178.70328620479359" y1="141.23008692659167" y2="143.65538615756765" /><path d="M 175.20536237346943 141.71514677278685 a86.0,86.0 0 0,1 -30.301960400862466,31.631185727798858" fill="none" id="id101" stroke="none" /><text fill="#e1ed5e" style="font-size:6.75px; font-family:Arial;" text-anchor="middle"><textPath startOffset="22.145653131862474" xlink:href="#id101">May</textPath></text><path d="M 115.89218393027572 113.72728997021213 l 33.43990916198506 28.88459708609463 a65.18763937559731,65.18763937559731 0 0,0 -0.7387589018118962,0.8405720181608025 l -32.939139196214576 -29.454381382066725" fill="red" stroke="none" /><path d="M 113.59037401385872 116.0094264158162 l 40.77112204157618 48.02827924744859 a84.0,84.0 0 0,0 -1.10730266335242,0.9237512643525192 l -39.94064504406187 -48.721092695712976" fill="red" stroke="none" /><line stroke="#e1ed5e" stroke-width="0.3" x1="143.1302829299769" x2="145.66735839644613" y1="173.24464959558577" y2="177.55315839532614" /><path d="M 143.63769802327073 174.10635135553383 a86.0,86.0 0 0,1 -40.68552437913181,11.842963189579606" fill="none" id="id102" stroke="none" /><text fill="#e1ed5e" style="font-size:6.75px; font-family:Arial;" text-anchor="middle"><textPath startOffset="21.407464694133747" xlink:href="#id102">June</textPath></text><path d="M 106.0420521117495 120.11202640906438 l 13.273651278313018 44.18366808439249 a67.13443771901879,67.13443771901879 0 0,0 -1.1065673067061408,0.32210561569742885 l -12.513223959225272 -44.40501739439243" fill="red" stroke="none" /><line stroke="#e1ed5e" stroke-width="0.3" x1="101.45913802915013" x2="101.54496967792366" y1="184.9874750549273" y2="189.98673829345242" /><path d="M 101.47630435890484 185.9873277026323 a86.0,86.0 0 0,1 -42.54439059252881,-10.42667462771756" fill="none" id="id103" stroke="none" /><text fill="#e1ed5e" style="font-size:6.75px; font-family:Arial;" text-anchor="middle"><textPath startOffset="22.145653131862474" xlink:href="#id103">July</textPath></text><path d="M 93.61358852112213 120.00534299687104 l -5.898122611426236 18.475785074204882 a40.39439311882765,40.39439311882765 0 0,0 -0.6587695795103296,-0.21655064561153037 l 6.214414928584309 -18.37181350719133" fill="red" stroke="none" /><line stroke="#e1ed5e" stroke-width="0.3" x1="58.13341422392154" x2="55.67067388415222" y1="173.97424548756322" y2="178.32567169271397" /><path d="M 57.64086615596768 174.84453072859336 a86.0,86.0 0 0,1 -31.369924170532247,-30.572349798747897" fill="none" id="id104" stroke="none" /><text fill="#e1ed5e" style="font-size:6.75px; font-family:Arial;" text-anchor="middle"><textPath startOffset="22.145653131862474" xlink:href="#id104">August</textPath></text><path d="M 86.68645165197938 116.24036423190432 l -21.291498154528036 25.97216579935003 a54.58394393118828,54.58394393118828 0 0,0 -0.7195350772771958,-0.6002617526164546 l 21.734207565967125 -25.602841862821705" fill="red" stroke="none" /><path d="M 85.86807049272751 115.53346607816431 l -27.3274329751972 30.037635901388125 a61.6084740363173,61.6084740363173 0 0,0 -0.7761794316564752,-0.718420094255157 l 27.839042178167645 -29.56409806100059" fill="red" stroke="none" /><line stroke="#e1ed5e" stroke-width="0.3" x1="26.387840678322732" x2="22.057713659400548" y1="142.50000000000003" y2="145.00000000000006" /><path d="M 25.521815274538298 143.00000000000003 a86.0,86.0 0 0,1 -11.493303480769221,-40.785679425670985" fill="none" id="id105" stroke="none" /><text fill="#e1ed5e" style="font-size:6.75px; font-family:Arial;" text-anchor="middle"><textPath startOffset="21.40746469413373" xlink:href="#id105">September</textPath></text><line stroke="#e1ed5e" stroke-width="0.3" x1="15.003131293944662" x2="10.003315487706104" y1="100.72959589197737" y2="100.7725132973878" /><path d="M 14.003168132696942 100.73817937305945 a86.0,86.0 0 0,1 10.791469493833604,-42.45332614584628" fill="none" id="id106" stroke="none" /><text fill="#e1ed5e" style="font-size:6.75px; font-family:Arial;" text-anchor="middle"><textPath startOffset="22.145653131862435" xlink:href="#id106">October</textPath></text><path d="M 79.00077361379809 100.18025310272382 l -39.05494859593716 0.33523976224965574 a60.056387384517365,60.056387384517365 0 0,0 0.0,-1.0309857299469323 l 39.05494859593716 0.3352397622496414" fill="red" stroke="none" /><path d="M 79.56144815229197 95.17655741523228 l -37.81685540984015 -8.924674906763583 a59.85568652437082,59.85568652437082 0 0,0 0.2445887863200637,-0.9980057143138488 l 37.65807909700379 9.572536445685548" fill="red" stroke="none" /><path d="M 79.73907114497095 94.47779374421319 l -38.84366672493306 -10.58701409599396 a61.26059254539663,61.26059254539663 0 0,0 0.2852453864520714,-1.0122352471551797 l 38.6562028464064 11.252257267052153" fill="red" stroke="none" /><path d="M 80.28708602549916 92.7611449362534 l -35.758309070024765 -13.130946394703138 a59.093023255813954,59.093023255813954 0 0,0 0.3578485408942616,-0.9492357696862433 l 35.52762984531607 13.742850444583524" fill="red" stroke="none" /><path d="M 80.9802524753101 91.09779779509293 l -36.00967172323418 -16.854344601389844 a60.75884039503026,60.75884039503026 0 0,0 0.4502540870366814,-0.9408578707374572 l 35.715038378237594 17.470014974192388" fill="red" stroke="none" /><path d="M 81.29705330413844 90.45014215332179 l -34.75447214939803 -17.74588111490093 a60.0229372411596,60.0229372411596 0 0,0 0.47644472926308984,-0.9136455899542997 l 34.44471935116 18.339872947959716" fill="red" stroke="none" /><line stroke="#e1ed5e" stroke-width="0.3" x1="26.387840678322718" x2="22.05771365940052" y1="57.49999999999999" y2="54.99999999999999" /><path d="M 25.521815274538284 56.99999999999999 a86.0,86.0 0 0,1 29.574782752854787,-30.34633250058573" fill="none" id="id107" stroke="none" /><text fill="#e1ed5e" style="font-size:6.75px; font-family:Arial;" text-anchor="middle"><textPath startOffset="21.40746469413373" xlink:href="#id107">November</textPath></text><path d="M 86.13680546590413 84.22622945171909 l -26.079058210842987 -29.673180977253516 a60.50461930551131,60.50461930551131 0 0,0 0.7860429388419234,-0.6789651691586992 l 25.565835792238214 30.116490278876924" fill="red" stroke="none" /><line stroke="#e1ed5e" stroke-width="0.3" x1="56.869717070023135" x2="54.33264160355391" y1="26.7553504044142" y2="22.446841604673864" /><path d="M 56.362301976729285 25.89364864446614 a86.0,86.0 0 0,1 42.16139366436587,-11.88097634709845" fill="none" id="id108" stroke="none" /><text fill="#e1ed5e" style="font-size:6.75px; font-family:Arial;" text-anchor="middle"><textPath startOffset="22.145653131862474" xlink:href="#id108">December</textPath></text><path d="M 89.97174638481275 81.54914285379989 l -18.836120839485208 -34.65634078814777 a60.444409047467346,60.444409047467346 0 0,0 0.9159089039083828,-0.48766990255703424 l 18.238423119790266 34.974581158427384" fill="red" stroke="none" /></svg>