<?xml version="1.0" encoding="utf-8" ?>
<svg baseProfile="full" height="200mm" version="1.1" viewBox="0,0,200,200" width="200mm" xmlns="http://www.w3.org/2000/svg" xmlns:ev="http://www.w3.org/2001/xml-events" xmlns:xlink="http://www.w3.org/1999/xlink"><defs /><rect fill="#1a1a1a" height="200" width="200" x="0" y="0" /><text alignment-baseline="middle" fill="#e1ed5e" style="dominant-baseline: central; font-size:9.0px; font-family:Arial;" text-anchor="middle" x="100.0" y="100.0">2022</text><line stroke="#e1ed5e" stroke-width="0.3" x1="100.0" x2="100.0" y1="15.0" y2="10.0" /><path d="M 100.0 14.0 a86.0,86.0 0 0,1 42.46469731375804,11.215312516191453" fill="none" id="id73" stroke="none" /><text fill="#e1ed5e" style="font-size:6.75px; font-family:Arial;" text-anchor="middle"><textPath startOffset="22.20632615414155" xlink:href="#id73">January</textPath></text><path d="M 100.72285384407766 79.0124445844662 l 0.3540468893800776 -10.27950362502801 a31.2855988633061,31.2855988633061 0 0,0 0.5380514687463288,0.023169628065546562 l -0.530939190515738 10.27188627043827" fill="#ff860c" stroke="none" /><path d="M 103.59715602781102 79.31037775812273 l 1.3250885721526187 -7.6214603378073 a28.735794555494557,28.735794555494557 0 0,0 0.48659946394850295,0.08892294177108963 l -1.4560831572040225 7.597521914685473" fill="#ff6409" stroke="none" /><line stroke="#e1ed5e" stroke-width="0.3" x1="143.23703022742887" x2="145.7803849466894" y1="26.81831364943548" y2="22.513508569990506" /><path d="M 143.74570117128098 25.957352633546492 a86.0,86.0 0 0,1 28.547481713284135,27.462654790039103" fill="none" id="id74" stroke="none" /><text fill="#e1ed5e" style="font-size:6.75px; font-family:Arial;" text-anchor="middle"><textPath startOffset="19.985693538727396" xlink:href="#id74">February</textPath></text><line stroke="#e1ed5e" stroke-width="0.3" x1="172.23445277983987" x2="176.4835382374775" y1="55.19839476539836" y2="52.563006222186495" /><path d="M 173.08426987136738 54.67131705675599 a86.0,86.0 0 0,1 12.851231095245387,41.99856678651699" fill="none" id="id75" stroke="none" /><text fill="#e1ed5e" style="font-size:6.75px; font-family:Arial;" text-anchor="middle"><textPath startOffset="22.20632615414155" xlink:href="#id75">March</textPath></text><path d="M 118.03404312379186 89.2402003453031 l 6.4554967554891585 -3.8515961885980277 a28.5171957244809,28.5171957244809 0 0,0 0.24788277098762543,0.42371200799864356 l -6.520839200947112 3.739904768245489" fill="#ff6108" stroke="none" /><path d="M 118.3937258080291 89.86733742301442 l 2.593160733891016 -1.4285100799391242 a23.960595149675463,23.960595149675463 0 0,0 0.19589714881450537,0.36296766513256273 l -2.617365981923986 1.3836614314741027" fill="#ff2103" stroke="none" /><path d="M 118.89224826269711 90.83032412892265 l 3.9299622257961415 -1.907474393467642 a25.36841637872574,25.36841637872574 0 0,0 0.1872935759396197,0.39448803674579186 l -3.9622139955775175 1.8395439410813097" fill="#ff3505" stroke="none" /><path d="M 119.34039704204932 91.81776055985345 l 7.710052684602929 -3.261851192837831 a29.371653695869796,29.371653695869796 0 0,0 0.19298339191994762,0.46732459083949157 l -7.765057763409074 3.128652031545036" fill="#ff6c0a" stroke="none" /><path d="M 120.28053869075195 94.5502522615342 l 0.81044875608892 -0.2177822464672534 a21.839199793328383,21.839199793328383 0 0,0 0.09443235477388308,0.3638863843256385 l -0.8140774427331057 0.20379943659276448" fill="#ff0300" stroke="none" /><path d="M 120.87857604477298 97.74499172005257 l 22.64368445324703 -2.4456503078126524 a43.77537378499693,43.77537378499693 0 0,0 0.07446581790166223,0.7498606239534767 l -22.68242739683092 2.055514153154741" fill="#dcff1b" stroke="none" /><line stroke="#e1ed5e" stroke-width="0.3" x1="184.98032266829074" x2="189.97916517819016" y1="98.17113171792111" y2="98.06355123074" /><path d="M 185.9800911702706 98.14961562048488 a86.0,86.0 0 0,1 -9.607161424134198,41.387399972396054" fill="none" id="id76" stroke="none" /><text fill="#e1ed5e" style="font-size:6.75px; font-family:Arial;" text-anchor="middle"><textPath startOffset="21.466115282336823" xlink:href="#id76">April</textPath></text><path d="M 120.99824983174949 100.27111621757518 l 50.907211099512175 0.6572819464093077 a71.9114541285885,71.9114541285885 0 0,0 -0.026634418211529676,1.2375967563530417 l -50.88835461861564 -1.5334685185524644" fill="#3effb6" stroke="none" /><path d="M 120.92983693683757 101.71520430193887 l 5.1709545627445355 0.4237607554189561 a26.1882891465108,26.1882891465108 0 0,0 -0.04068588124845719,0.44896530927692185 l -5.162894085219003 -0.5127074532444484" fill="#ff4106" stroke="none" /><path d="M 120.89721153311464 102.0752229133903 l 0.6432740302238366 0.06388110705555283 a21.64643814383053,21.64643814383053 0 0,0 -0.040012614735397314,0.3704671184279067 l -0.6420791139873874 -0.07494454736825094" fill="#ff0000" stroke="none" /><path d="M 120.8583938346157 102.4346265915055 l 31.485114696509758 3.674995212215766 a52.69886492072206,52.69886492072206 0 0,0 -0.11292235170651006,0.9001022483938007 l -31.4171908355564 -4.216415214896961" fill="#79ff26" stroke="none" /><path d="M 120.64145759157962 103.86396538481128 l 5.032717576156038 0.9420965752792123 a26.12013595117383,26.12013595117383 0 0,0 -0.08653236232418707,0.4412266512284754 l -5.015755280856188 -1.0285869535756327" fill="#ff4006" stroke="none" /><path d="M 120.23288151984713 105.62410040840565 l 4.926239817846979 1.369338684867006 a26.113015468078924,26.113015468078924 0 0,0 -0.1241081531819741,0.4320367626865353 l -4.901939027778906 -1.453932923058123" fill="#ff4006" stroke="none" /><path d="M 120.02730092923936 106.31721596034902 l 25.607614361859298 8.077415460264138 a47.85134175089611,47.85134175089611 0 0,0 -0.254541222516423,0.7833973300712637 l -25.464780888326626 -8.517011690313197" fill="#adff20" stroke="none" /><path d="M 119.79798401119884 107.00284435728193 l 51.98960702679251 18.389505012173842 a76.14610714631705,76.14610714631705 0 0,0 -0.44772365959365157,1.2319432215413524 l -51.665359106193634 -19.281696030721328" fill="#43ffe2" stroke="none" /><path d="M 119.41010516605496 108.01547362559984 l 4.717450964123781 1.9480885579704443 a26.103860561242612,26.103860561242612 0 0,0 -0.17508110224494314,0.41384000758552497 l -4.683218880686529 -2.029003091222133" fill="#ff4006" stroke="none" /><line stroke="#e1ed5e" stroke-width="0.3" x1="174.80103733775053" x2="179.2010983576182" y1="140.37084112569926" y2="142.7455964860345" /><path d="M 175.68104954172406 140.8457921977663 a86.0,86.0 0 0,1 -30.038265399797805,32.042727171017184" fill="none" id="id77" stroke="none" /><text fill="#e1ed5e" style="font-size:6.75px; font-family:Arial;" text-anchor="middle"><textPath startOffset="22.206326154141568" xlink:href="#id77">May</textPath></text><path d="M 118.30583269289576 110.29060199501025 l 46.13773886361766 25.936274823459033 a73.92807666225337,73.92807666225337 0 0,0 -0.6331341436190535,1.1039227464356052 l -45.68445272384623 -26.726617415752955" fill="#41ffcb" stroke="none" /><path d="M 116.27256486870786 113.27417163493432 l 3.319593774561459 2.7079232977294816 a25.283987793457552,25.283987793457552 0 0,0 -0.2780082819120081,0.33487888476300265 l -3.2724894927559074 -2.7646634396062546" fill="#ff3404" stroke="none" /><path d="M 115.56566222782051 114.09645910891815 l 3.0973491344925237 2.804998257149664 a25.17870636483999,25.17870636483999 0 0,0 -0.29369593171850156,0.3187489282294455 l -3.0486067947783 -2.8578984401804446" fill="#ff3304" stroke="none" /><path d="M 114.55890576462653 115.13401014063108 l 3.131502295079799 3.255202571905849 a25.516929311848095,25.516929311848095 0 0,0 -0.3191610926954916,0.30178673417456175 l -3.0750053679935 -3.3086239428263324" fill="#ff3705" stroke="none" /><path d="M 113.20401910651253 116.32954008644616 l 2.6299735153217707 3.252514071534211 a25.182775212322795,25.182775212322795 0 0,0 -0.33941884935386596,0.2696548617373219 l -2.573597173250554 -3.2973028472766592" fill="#ff3304" stroke="none" /><path d="M 111.7513745106137 117.40417183066458 l 1.5081506167470708 2.2336206251176653 a23.695102851422483,23.695102851422483 0 0,0 -0.33999685738535307,0.22533137761303873 l -1.4694790606217536 -2.2592500238220223" fill="#ff1e03" stroke="none" /><line stroke="#e1ed5e" stroke-width="0.3" x1="143.8653032363475" x2="146.44561519142675" y1="172.8068346515853" y2="177.08958963109032" /><path d="M 144.38136562736335 173.6633856474863 a86.0,86.0 0 0,1 -40.68145358897372,12.25698825130547" fill="none" id="id78" stroke="none" /><text fill="#e1ed5e" style="font-size:6.75px; font-family:Arial;" text-anchor="middle"><textPath startOffset="21.466115282336833" xlink:href="#id78">June</textPath></text><path d="M 108.2653958097858 119.30500536409082 l 1.2249158045680721 2.860964764657661 a24.11215971840992,24.11215971840992 0 0,0 -0.3829568304402557,0.16007598618274546 l -1.1754875146303552 -2.8816257938603798" fill="#ff2303" stroke="none" /><path d="M 106.2309692047433 120.05430185196036 l 1.2946560404824365 4.166835395452447 a25.363330319372235,25.363330319372235 0 0,0 -0.41804206452729537,0.12595264479072824 l -1.2227390015148953 -4.1885034093489" fill="#ff3505" stroke="none" /><path d="M 103.06178313531738 120.77559828337769 l 0.7432489189771226 5.043283695408692 a26.097757290018407,26.097757290018407 0 0,0 -0.44499336760481223,0.06167202596122677 l -0.65632696018548 -5.055330286862522" fill="#ff3f05" stroke="none" /><path d="M 102.34483914955558 120.86867818915974 l 0.5020842248495405 4.46846604135922 a25.496585074434076,25.496585074434076 0 0,0 -0.4365590900304099,0.045251134664078194 l -0.42509253821352794 -4.476446544479057" fill="#ff3705" stroke="none" /><line stroke="#e1ed5e" stroke-width="0.3" x1="102.19456741930631" x2="102.32365962044197" y1="184.97166512339345" y2="189.96999836594603" /><path d="M 102.22038585953345 185.97133177190398 a86.0,86.0 0 0,1 -42.740103519485714,-10.115201625700543" fill="none" id="id79" stroke="none" /><text fill="#e1ed5e" style="font-size:6.75px; font-family:Arial;" text-anchor="middle"><textPath startOffset="22.20632615414155" xlink:href="#id79">July</textPath></text><path d="M 99.81925306533755 120.99922214144158 l -0.055026051168347925 6.39293979844481 a27.393176607356217,27.393176607356217 0 0,0 -0.4714761070375117,-0.008116888754060294 l 0.16506184809852753 -6.39104543241159" fill="#ff5107" stroke="none" /><path d="M 96.22490169976321 120.6578951692458 l -9.331381773876242 51.062698541347906 a72.90832176187556,72.90832176187556 0 0,0 -1.2326102567949084,-0.23623268935187444 l 10.208959645242846 -50.89450865364756" fill="#3fffc1" stroke="none" /><path d="M 94.11515582081647 120.15858648285463 l -0.7895994950917947 2.7047801477786364 a23.81767688184196,23.81767688184196 0 0,0 -0.3925663818810245,-0.11827703058961819 l 0.8360408514130651 -2.690787748083293" fill="#ff1f03" stroke="none" /><path d="M 93.76903079525671 120.05430185196036 l -0.8051043217127622 2.5912188873690196 a23.713412665095102,23.713412665095102 0 0,0 -0.3887629436020191,-0.12446961781224257 l 0.8495886104057216 -2.5769764228970704" fill="#ff1e03" stroke="none" /><path d="M 92.40401165467489 119.57807347666478 l -18.23931295864714 47.01042090040147 a71.42471824845803,71.42471824845803 0 0,0 -1.1423836909193117,-0.45457804672923896 l 19.04581772560831 -46.689496009266165" fill="#3dffb1" stroke="none" /><path d="M 92.06813273071674 119.44442032107085 l -0.9689751632285519 2.3753751436887987 a23.565408337908096,23.565408337908096 0 0,0 -0.37427315472803907,-0.1564462090307725 l 1.0097197774540532 -2.358343891638053" fill="#ff1c02" stroke="none" /><path d="M 90.10565033884886 118.52300852407294 l -29.683048983453403 55.569025572218784 a84.0,84.0 0 0,0 -1.2695087525254378,-0.6922373929609367 l 30.635180547847483 -55.04984752749809" fill="#4dd2ff" stroke="none" /><line stroke="#e1ed5e" stroke-width="0.3" x1="58.666819895761336" x2="56.23545636021788" y1="174.27360380694188" y2="178.64263932499728" /><path d="M 58.180547188652646 175.14741091055294 a86.0,86.0 0 0,1 -31.652253787137756,-30.449443065178592" fill="none" id="id80" stroke="none" /><text fill="#e1ed5e" style="font-size:6.75px; font-family:Arial;" text-anchor="middle"><textPath startOffset="22.20632615414155" xlink:href="#id80">August</textPath></text><path d="M 88.54995079064634 117.60387380957326 l -27.75565582553501 42.672922510718706 a71.90535085736428,71.90535085736428 0 0,0 -1.0317572147287637,-0.683792421920891 l 28.486087739003736 -42.18883206770649" fill="#3effb6" stroke="none" /><line stroke="#e1ed5e" stroke-width="0.3" x1="26.63291911575756" x2="22.317208475507996" y1="142.92168965132927" y2="145.44649492493687" /><path d="M 25.769776987707644 143.4266507060508 a86.0,86.0 0 0,1 -11.730757126820373,-40.83630448921669" fill="none" id="id81" stroke="none" /><text fill="#e1ed5e" style="font-size:6.75px; font-family:Arial;" text-anchor="middle"><textPath startOffset="21.46611528233685" xlink:href="#id81">September</textPath></text><path d="M 80.58989483394504 108.01547362559985 l -2.4473392844273434 1.0106376714294119 a23.64780249943488,23.64780249943488 0 0,0 -0.15213125220148874,-0.37757729177090493 l 2.46437315088622 -0.9683610118157016" fill="#ff1d02" stroke="none" /><path d="M 80.32549172779594 107.34259656027581 l -2.3882351081866204 0.8912978483571796 a23.54913294797688,23.54913294797688 0 0,0 -0.1384641234970316,-0.3809937998890941 l 2.4032234926888765 -0.8500562514619684" fill="#ff1b02" stroke="none" /><path d="M 80.20201598880116 107.00284435728193 l -2.4200057796489935 0.855992398469384 a23.566934155714147,23.566934155714147 0 0,0 -0.1319851211080566,-0.3836105428057281 l 2.4343817317002783 -0.8142091525743591" fill="#ff1c02" stroke="none" /><path d="M 79.58551787078972 104.9243191809786 l -2.748509045668292 0.6629869779214984 a23.82734039461362,23.82734039461362 0 0,0 -0.09274444377313047,-0.39954063642704035 l 2.7595140553719775 -0.6155776841458839" fill="#ff1f03" stroke="none" /><path d="M 79.35854240842038 103.8639653848113 l -3.3314820629287625 0.6236348045754145 a24.389349953175962,24.389349953175962 0 0,0 -0.07369481064588362,-0.4133196347686237 l 3.341723315913835 -0.5661964190735771" fill="#ff2703" stroke="none" /><line stroke="#e1ed5e" stroke-width="0.3" x1="15.007084014347285" x2="10.007500721073583" y1="101.09737516637583" y2="101.16192664675087" /><path d="M 14.007167355692545 101.11028546245083 a86.0,86.0 0 0,1 10.666146001902534,-42.60595125391555" fill="none" id="id82" stroke="none" /><text fill="#e1ed5e" style="font-size:6.75px; font-family:Arial;" text-anchor="middle"><textPath startOffset="22.20632615414155" xlink:href="#id82">October</textPath></text><path d="M 79.54389044137918 95.25157060432595 l -3.2995855990348133 -0.765925172970965 a24.38731552943456,24.38731552943456 0 0,0 0.09844021174219586,-0.4080982303440686 l 3.2859125870318024 0.8226086349744304" fill="#ff2703" stroke="none" /><path d="M 79.91906864156998 93.8553929516997 l -2.7366729281304067 -0.8374003905960979 a23.861925598217457,23.861925598217457 0 0,0 0.1235644550255843,-0.391733089463369 l 2.7218529893366186 0.8843836464858814" fill="#ff2003" stroke="none" /><path d="M 80.14247586403 93.16781622104843 l -24.08767630905619 -8.287610792992282 a46.473528272031515,46.473528272031515 0 0,0 0.2667733646234102,-0.754204225878016 l 23.941449863622967 8.70101264529691" fill="#bdff1f" stroke="none" /><path d="M 80.38941819471856 92.48833698450439 l -2.6939456518121614 -1.031892481283894 a23.88481286530823,23.88481286530823 0 0,0 0.15036792003154834,-0.3826699550672108 l 2.675784181898922 1.0781114412468682" fill="#ff2003" stroke="none" /><line stroke="#e1ed5e" stroke-width="0.3" x1="26.266209847984243" x2="21.928928074336255" y1="57.711370442889674" y2="55.22380399835377" /><path d="M 25.398753493254645 57.213857153982495 a86.0,86.0 0 0,1 29.58750427330803,-30.492523968695096" fill="none" id="id83" stroke="none" /><text fill="#e1ed5e" style="font-size:6.75px; font-family:Arial;" text-anchor="middle"><textPath startOffset="21.46611528233685" xlink:href="#id83">November</textPath></text><path d="M 83.17141714833178 87.43820079747576 l -4.082698867144716 -3.0475556869817533 a26.094705654406305,26.094705654406305 0 0,0 0.2717876171137452,-0.357640645535314 l 4.029635309806862 3.117381108398094" fill="#ff3f05" stroke="none" /><line stroke="#e1ed5e" stroke-width="0.3" x1="56.762969772571076" x2="54.21961505331055" y1="26.818313649435495" y2="22.513508569990535" /><path d="M 56.25429882871897 25.957352633546506 a86.0,86.0 0 0,1 42.265352541879196,-11.944610805530505" fill="none" id="id84" stroke="none" /><text fill="#e1ed5e" style="font-size:6.75px; font-family:Arial;" text-anchor="middle"><textPath startOffset="22.20632615414155" xlink:href="#id84">December</textPath></text></svg>